<?xml version="1.0" encoding="UTF-8" standalone="no"?><!DOCTYPE svg PUBLIC "-//W3C//DTD SVG 1.1//EN" "http://www.w3.org/Graphics/SVG/1.1/DTD/svg11.dtd"><svg width="100%" height="100%" viewBox="0 0 1000 1000" version="1.1" xmlns="http://www.w3.org/2000/svg" xmlns:xlink="http://www.w3.org/1999/xlink" xml:space="preserve" xmlns:serif="http://www.serif.com/" style="fill-rule:evenodd;clip-rule:evenodd;stroke-linejoin:round;stroke-miterlimit:2;"><rect id="favicon" x="0" y="0" width="1000" height="1000" style="fill:none;"/><g><path d="M423.79,902.167l-125.018,-159.831l-91.829,89.074l-73.463,-109.276l189.167,-179.984l177.353,181.821l177.353,-181.821l189.167,179.984l-73.463,109.276l-91.829,-89.074l-129.88,163.901l-71.348,91.123l-76.21,-95.194Z" style="fill:#054f6f;"/><path d="M500,356.619l178.989,-172.785c0,0 256.238,111.592 244.733,383.767l-197.288,-208.498l-226.433,226.433l-226.433,-226.433l-197.288,208.498c-11.506,-272.175 244.733,-383.767 244.733,-383.767l178.989,172.785Z" style="fill:#054f6f;"/><path d="M500,2.639l116.579,117.7l-116.579,117.7l-116.579,-117.7l116.579,-117.7Z" style="fill:#054f6f;"/></g></svg>