<?xml version="1.0" encoding="UTF-8"?>
<svg id="Capa_2" data-name="Capa 2" xmlns="http://www.w3.org/2000/svg" viewBox="0 0 412.57 216">
  <defs>
    <style>
      .cls-1 {
        fill: #155230;
      }
    </style>
  </defs>
  <g>
    <path class="cls-1" d="M112.29,102.48c2.57.04,5.02.06,7.37.06,3.07,0,5.63-.02,7.68-.06-.49,6.23-.84,13.16-1.04,20.77-3.09.61-5.88,1.05-8.37,1.3-2.49.25-4.61.38-6.36.38-3.27,0-6.31-.34-9.11-1.03-2.8-.69-5.17-1.8-7.1-3.35s-3.41-3.58-4.42-6.1c-1.01-2.52-1.52-5.19-1.52-8,0-2.4.38-4.72,1.13-6.95.75-2.23,1.87-4.28,3.35-6.14s3.27-3.41,5.36-4.65c2.09-1.24,4.32-2.08,6.67-2.54s4.84-.68,7.47-.68c3.61,0,7.76.48,12.45,1.45.02,2.11.12,4.33.31,6.64-4.39-1.47-8.37-2.21-11.92-2.21-2.29,0-4.45.33-6.49.98-2.04.65-3.8,1.66-5.28,3.03-1.48,1.37-2.61,3.06-3.38,5.08-.77,2.02-1.16,4.11-1.16,6.27,0,2.4.44,4.55,1.33,6.43.88,1.89,2.37,3.35,4.45,4.4,2.08,1.04,4.48,1.56,7.17,1.56.99,0,2.15-.09,3.49-.26s2.74-.48,4.19-.91l.46-9.8-2.21-.03c-1.25,0-2.83.03-4.75.08.17-2.49.25-4.4.25-5.72Z"/>
    <path class="cls-1" d="M162.21,124.26c-1.64-.04-2.9-.06-3.77-.06-1.1,0-2.35.02-3.74.06l.05-4.63c-.52.78-.98,1.41-1.37,1.88-.39.47-.9.94-1.53,1.4-.63.46-1.32.82-2.07,1.09s-1.6.49-2.55.67c-.96.18-1.98.26-3.06.26-2.08,0-3.9-.3-5.44-.91-1.54-.6-2.77-1.52-3.67-2.75s-1.35-2.99-1.35-5.28v-.59l.45-7.2.42-9.49c.02-.76.03-1.71.03-2.85,1.77.04,3.15.06,4.15.06,1.06,0,2.34-.02,3.85-.06l-.93,12.73c-.06.99-.1,1.82-.13,2.5-.03.68-.04,1.17-.04,1.46,0,1.34.2,2.45.6,3.34.4.88,1.1,1.56,2.09,2.02.99.46,2.06.7,3.19.7s2.1-.21,3.07-.61c.87-.37,1.62-.89,2.25-1.56s1.15-1.57,1.58-2.71c.32-.82.56-1.95.72-3.41.13-1.02.25-2.78.36-5.28.15-3.02.26-6.08.32-9.18,1.84.04,3.25.06,4.22.06,1.1,0,2.34-.02,3.72-.06-.22,2.66-.45,5.99-.7,9.98s-.41,7.29-.5,9.88c-.09,2.6-.17,5.44-.22,8.53Z"/>
    <path class="cls-1" d="M171.28,102.09c.26-1.34.42-2.28.49-2.82.06-.54.18-1.36.35-2.46,2.53-.6,4.76-1.01,6.7-1.26,1.94-.24,3.81-.36,5.61-.36,2.05,0,3.93.24,5.64.71,1.71.47,3.05,1.23,4.02,2.27.97,1.04,1.45,2.54,1.45,4.5,0,1.06-.15,3.76-.44,8.11-.3,4.35-.47,8.84-.53,13.47-1.42-.04-2.72-.06-3.91-.06s-2.47.02-4,.06c.24-2.25.44-4.86.59-7.82l.37-6.95c-.71.46-1.25.79-1.62.98-.37.19-.79.36-1.26.52s-1.29.4-2.46.73c-1.17.33-2.11.61-2.82.85-.71.24-1.35.52-1.91.82-.57.31-1.05.65-1.44,1.03-.39.38-.68.78-.85,1.2-.18.42-.27.87-.27,1.35,0,.78.23,1.46.68,2.02.46.57,1.03.96,1.72,1.19.69.22,1.5.33,2.43.33.6,0,1.22-.05,1.88-.14.66-.09,1.55-.33,2.67-.7-.39,1.06-.85,2.64-1.37,4.75-1.32.22-2.37.36-3.15.42-.78.06-1.51.08-2.18.08-2.34,0-4.27-.32-5.78-.95-1.51-.63-2.62-1.64-3.34-3.01s-1.07-2.76-1.07-4.16c0-.8.14-1.59.42-2.37.28-.78.69-1.5,1.23-2.15.54-.65,1.24-1.28,2.1-1.88.86-.6,2.09-1.19,3.71-1.76s3.76-1.14,6.42-1.72c.71-.15,1.44-.33,2.21-.54.76-.21,1.37-.42,1.83-.63.46-.2.85-.47,1.19-.79.33-.33.58-.67.74-1.02.16-.35.24-.72.24-1.09,0-.73-.24-1.34-.71-1.84-.48-.5-1.09-.85-1.84-1.05-.75-.2-1.59-.29-2.5-.29-3.39,0-7.13.81-11.23,2.43Z"/>
    <path class="cls-1" d="M201.35,124.26c.43-4.22.78-8.97,1.07-14.24s.45-9.98.49-14.15c1.71.04,3.08.06,4.11.06,1.21,0,2.5-.02,3.86-.06l-.31,4.75c.58-.82,1.08-1.47,1.52-1.95.44-.48,1-.96,1.68-1.42.68-.46,1.41-.84,2.18-1.12s1.64-.5,2.6-.67c.96-.17,1.96-.25,3-.25,1.66,0,3.24.21,4.76.63s2.74,1.08,3.67,2c.93.91,1.54,1.91,1.84,2.99.3,1.08.45,2.22.45,3.43,0,.5-.03,1.3-.08,2.4l-.58,12.2c-.07,1.69-.12,3.5-.14,5.42-1.47-.04-2.73-.06-3.77-.06-1.42,0-2.84.02-4.28.06.15-1.62.34-4.44.56-8.47.22-4.03.34-6.7.34-8,0-1.47-.23-2.65-.7-3.54-.46-.89-1.19-1.57-2.16-2.04-.98-.46-2.03-.7-3.17-.7s-2.16.21-3.12.64c-.97.43-1.8,1.05-2.51,1.87-.74.84-1.32,1.87-1.73,3.1-.43,1.3-.74,3.45-.95,6.45-.19,2.66-.34,6.23-.45,10.69-1.44-.04-2.73-.06-3.89-.06s-2.6.02-4.28.06Z"/>
    <path class="cls-1" d="M240.29,102.09c.26-1.34.42-2.28.49-2.82.06-.54.18-1.36.35-2.46,2.53-.6,4.76-1.01,6.7-1.26,1.94-.24,3.81-.36,5.61-.36,2.05,0,3.93.24,5.64.71,1.71.47,3.05,1.23,4.02,2.27.97,1.04,1.45,2.54,1.45,4.5,0,1.06-.15,3.76-.44,8.11s-.47,8.84-.53,13.47c-1.42-.04-2.72-.06-3.91-.06s-2.47.02-4,.06c.24-2.25.44-4.86.59-7.82l.37-6.95c-.71.46-1.25.79-1.62.98-.37.19-.79.36-1.26.52s-1.29.4-2.46.73c-1.17.33-2.11.61-2.82.85-.71.24-1.35.52-1.91.82-.57.31-1.05.65-1.44,1.03-.39.38-.68.78-.85,1.2-.18.42-.27.87-.27,1.35,0,.78.23,1.46.68,2.02.46.57,1.03.96,1.72,1.19.69.22,1.5.33,2.43.33.6,0,1.22-.05,1.88-.14.66-.09,1.55-.33,2.67-.7-.39,1.06-.85,2.64-1.37,4.75-1.32.22-2.37.36-3.15.42-.78.06-1.51.08-2.18.08-2.34,0-4.27-.32-5.78-.95-1.51-.63-2.62-1.64-3.34-3.01s-1.07-2.76-1.07-4.16c0-.8.14-1.59.42-2.37.28-.78.69-1.5,1.23-2.15.54-.65,1.24-1.28,2.1-1.88.86-.6,2.09-1.19,3.71-1.76s3.76-1.14,6.42-1.72c.71-.15,1.44-.33,2.21-.54.76-.21,1.37-.42,1.83-.63.46-.2.85-.47,1.19-.79.33-.33.58-.67.74-1.02.16-.35.24-.72.24-1.09,0-.73-.24-1.34-.71-1.84-.48-.5-1.09-.85-1.84-1.05-.75-.2-1.59-.29-2.5-.29-3.39,0-7.13.81-11.23,2.43Z"/>
    <path class="cls-1" d="M292.8,117.81c-.09.76-.23,1.63-.42,2.6-.19.97-.38,2.17-.59,3.6-2.66.61-5.29.92-7.87.92-1.51,0-2.96-.14-4.36-.42s-2.69-.78-3.89-1.49-2.26-1.66-3.17-2.83c-.91-1.17-1.6-2.59-2.05-4.26-.46-1.67-.68-3.38-.68-5.15,0-2.34.38-4.6,1.13-6.76s1.86-3.92,3.31-5.29c1.45-1.37,3.07-2.3,4.84-2.79s3.75-.74,5.93-.74c1.21,0,2.46.07,3.74.21s2.8.42,4.55.85l.42,6.11c-2.77-.95-5.18-1.42-7.25-1.42-1.26,0-2.46.21-3.58.64s-2.09,1.1-2.9,2.02c-.81.92-1.38,1.99-1.73,3.2s-.52,2.45-.52,3.71c0,1.77.27,3.3.82,4.59.55,1.29,1.49,2.29,2.83,3s2.86,1.06,4.57,1.06c.84,0,1.85-.11,3.05-.32s2.47-.56,3.8-1.05Z"/>
    <path class="cls-1" d="M300.65,102.09c.26-1.34.42-2.28.49-2.82.07-.54.18-1.36.35-2.46,2.53-.6,4.76-1.01,6.7-1.26,1.94-.24,3.81-.36,5.61-.36,2.05,0,3.93.24,5.64.71,1.71.47,3.05,1.23,4.02,2.27.97,1.04,1.45,2.54,1.45,4.5,0,1.06-.15,3.76-.44,8.11s-.47,8.84-.53,13.47c-1.42-.04-2.72-.06-3.91-.06s-2.47.02-4,.06c.24-2.25.44-4.86.59-7.82l.37-6.95c-.71.46-1.25.79-1.62.98-.37.19-.79.36-1.26.52s-1.29.4-2.46.73c-1.17.33-2.11.61-2.82.85-.71.24-1.35.52-1.91.82-.57.31-1.05.65-1.44,1.03-.39.38-.67.78-.85,1.2-.18.42-.26.87-.26,1.35,0,.78.23,1.46.68,2.02.46.57,1.03.96,1.72,1.19.69.22,1.5.33,2.43.33.6,0,1.22-.05,1.88-.14.66-.09,1.55-.33,2.67-.7-.39,1.06-.85,2.64-1.37,4.75-1.32.22-2.37.36-3.15.42-.78.06-1.51.08-2.18.08-2.34,0-4.27-.32-5.78-.95-1.51-.63-2.62-1.64-3.34-3.01-.72-1.38-1.08-2.76-1.08-4.16,0-.8.14-1.59.42-2.37.28-.78.69-1.5,1.23-2.15.54-.65,1.24-1.28,2.09-1.88s2.09-1.19,3.71-1.76,3.76-1.14,6.42-1.72c.71-.15,1.44-.33,2.21-.54.76-.21,1.37-.42,1.83-.63.46-.2.85-.47,1.19-.79.33-.33.58-.67.74-1.02s.24-.72.24-1.09c0-.73-.24-1.34-.71-1.84-.48-.5-1.09-.85-1.84-1.05-.75-.2-1.59-.29-2.5-.29-3.39,0-7.13.81-11.23,2.43Z"/>
    <path class="cls-1" d="M330.15,123.73l-.61-6.14c1.82.74,3.37,1.26,4.63,1.55,1.27.29,2.43.43,3.49.43s1.95-.12,2.68-.38c.73-.25,1.27-.62,1.62-1.12s.53-1.01.53-1.55c0-.24-.02-.47-.07-.67-.05-.2-.13-.42-.25-.64s-.26-.43-.42-.63-.38-.42-.66-.67c-.28-.25-.68-.57-1.2-.96l-1.51-1.2c-1.45-1.13-2.56-2.03-3.32-2.68-.76-.65-1.41-1.32-1.93-2-.52-.68-.92-1.4-1.19-2.15-.27-.75-.41-1.52-.41-2.3,0-1.36.41-2.65,1.24-3.88s2.03-2.13,3.62-2.69c1.58-.57,3.44-.85,5.58-.85,2.44,0,5.25.29,8.43.87l.36,5.83c-2.16-.87-4.23-1.31-6.23-1.31-1.08,0-2.02.11-2.83.32-.81.21-1.39.54-1.75.98s-.53.93-.53,1.47c0,.32.06.63.17.93.11.31.31.63.59.96s.6.65.96.95c.36.3,1.12.88,2.28,1.76,1.15.88,2.16,1.67,3.03,2.37.87.71,1.58,1.42,2.13,2.14.56.72.99,1.48,1.28,2.3.3.82.45,1.65.45,2.48,0,1.4-.43,2.69-1.28,3.88-.86,1.19-2.15,2.12-3.88,2.79-1.73.67-3.67,1-5.81,1-1.12,0-2.47-.09-4.08-.26-1.6-.18-3.31-.49-5.14-.94Z"/>
    <path class="cls-1" d="M373.4,118.42c-.22,1.02-.58,2.92-1.06,5.7-1.56.35-2.79.58-3.68.67s-1.73.14-2.51.14c-1.38,0-2.61-.13-3.7-.39-1.09-.26-1.99-.72-2.69-1.38-.71-.66-1.19-1.43-1.44-2.32-.25-.88-.38-1.8-.38-2.75,0-.24,0-.57.03-.98s.09-1.73.22-3.96l.64-11.61h-4.02c.09-1.12.18-2.91.25-5.39h4.21c.11-1.08.22-2.91.33-5.5l3.3-.64c.69-.13,2.02-.44,4-.92-.13,2.51-.21,4.87-.23,7.06h7.1c-.13,2.51-.2,4.31-.2,5.39h-7.12c-.39,7.57-.59,11.96-.59,13.15s.13,2.05.38,2.68c.25.63.66,1.09,1.21,1.37.56.28,1.15.42,1.79.42.47,0,.95-.04,1.47-.11.51-.07,1.41-.28,2.69-.61Z"/>
    <path class="cls-1" d="M402.57,117.92c-.24,1.1-.59,3.07-1.03,5.92-2.01.43-3.7.72-5.08.87-1.38.15-2.76.22-4.16.22-2.44,0-4.62-.24-6.55-.72-1.93-.48-3.62-1.37-5.07-2.66-1.45-1.29-2.52-2.88-3.21-4.75s-1.03-3.85-1.03-5.91c0-2.29.4-4.5,1.2-6.65.8-2.15,1.92-3.9,3.36-5.27s3.08-2.33,4.93-2.9c1.84-.57,3.77-.85,5.78-.85,1.9,0,3.7.24,5.42.71,1.71.47,3.15,1.25,4.31,2.33,1.16,1.08,2.06,2.37,2.68,3.89.62,1.51.93,3.2.93,5.06,0,.87-.09,1.77-.28,2.7l-20.46.03c-.04.69-.06,1.24-.06,1.65,0,1.25.21,2.39.64,3.43.43,1.04,1.05,1.93,1.87,2.65s1.8,1.26,2.93,1.61c1.13.34,2.25.52,3.35.52,1.28,0,2.68-.14,4.17-.42s3.28-.75,5.35-1.42ZM384.53,106.64l13.07.03c0-.89-.03-1.55-.08-1.97-.06-.43-.18-.91-.38-1.46-.2-.55-.46-1.03-.8-1.45s-.73-.76-1.17-1.04c-.45-.28-.96-.49-1.55-.64s-1.21-.22-1.88-.22c-.78,0-1.54.12-2.28.36-.74.24-1.41.59-2.02,1.06-.61.46-1.11.98-1.49,1.56-.38.58-.67,1.13-.85,1.66-.19.53-.37,1.24-.56,2.13Z"/>
  </g>
  <g>
    <path class="cls-1" d="M81.76,146.28c-.13.61-.34,1.73-.63,3.38-.93.21-1.65.34-2.18.4-.53.05-1.03.08-1.49.08-.82,0-1.55-.08-2.19-.23-.65-.15-1.18-.43-1.6-.82-.42-.39-.7-.85-.85-1.37-.15-.52-.22-1.07-.22-1.63,0-.14,0-.34.02-.58.01-.24.06-1.03.13-2.35l.38-6.88h-2.38c.05-.66.1-1.73.15-3.19h2.49c.07-.64.13-1.73.2-3.26l1.96-.38c.41-.08,1.2-.26,2.37-.55-.08,1.49-.12,2.89-.14,4.19h4.21c-.08,1.49-.12,2.55-.12,3.19h-4.22c-.23,4.49-.35,7.09-.35,7.79s.07,1.21.22,1.59.39.65.72.81c.33.17.68.25,1.06.25.28,0,.57-.02.87-.07.3-.04.84-.17,1.6-.36Z"/>
    <path class="cls-1" d="M93.08,132.51c1.27,0,2.48.19,3.65.57,1.16.38,2.15.94,2.96,1.69.81.74,1.42,1.65,1.83,2.73.41,1.08.61,2.21.61,3.4,0,1.26-.22,2.47-.65,3.64-.43,1.17-1.05,2.18-1.87,3.04-.82.86-1.83,1.5-3.05,1.92-1.22.42-2.52.64-3.9.64-1.28,0-2.5-.19-3.65-.57s-2.14-.95-2.95-1.71c-.82-.76-1.44-1.69-1.86-2.78s-.64-2.23-.64-3.43.19-2.37.58-3.48c.39-1.1.99-2.08,1.81-2.95.82-.86,1.87-1.53,3.15-2,1.28-.47,2.6-.71,3.97-.71ZM93.08,135.91c-.96,0-1.81.24-2.56.7s-1.31,1.17-1.68,2.09-.55,1.94-.55,3.03c0,.96.15,1.81.45,2.56.3.75.8,1.36,1.48,1.82.69.46,1.5.69,2.45.69s1.82-.24,2.55-.72c.73-.48,1.28-1.19,1.65-2.12.37-.93.55-1.96.55-3.09,0-.92-.14-1.75-.43-2.5-.29-.75-.77-1.35-1.44-1.8-.68-.45-1.5-.68-2.46-.68Z"/>
    <path class="cls-1" d="M122.05,149.73c-.97-.02-1.72-.03-2.24-.03-.65,0-1.39.01-2.22.03l.03-2.75c-.31.46-.58.84-.81,1.12-.23.28-.54.56-.91.83s-.78.49-1.22.65c-.44.16-.95.29-1.51.4-.57.1-1.17.16-1.81.16-1.24,0-2.31-.18-3.23-.54s-1.64-.9-2.18-1.63c-.53-.73-.8-1.77-.8-3.13v-.35l.27-4.27.25-5.63c.01-.45.02-1.02.02-1.69,1.05.02,1.87.03,2.46.03.63,0,1.39-.01,2.28-.03l-.55,7.55c-.03.58-.06,1.08-.08,1.48-.02.4-.02.69-.02.87,0,.79.12,1.45.35,1.98.24.52.65.92,1.24,1.2.59.28,1.22.41,1.89.41s1.25-.12,1.82-.36c.52-.22.96-.53,1.33-.93.37-.4.68-.93.93-1.61.19-.49.33-1.16.43-2.02.08-.61.15-1.65.21-3.13.09-1.79.15-3.6.19-5.45,1.09.02,1.93.03,2.5.03.65,0,1.39-.01,2.2-.03-.13,1.58-.27,3.55-.41,5.92-.14,2.37-.24,4.32-.3,5.86-.05,1.54-.1,3.22-.13,5.06Z"/>
    <path class="cls-1" d="M126.13,149.73l.48-7.86.13-4.57c.02-.94.03-1.88.03-2.83,0-.17-.01-.69-.03-1.57,1.03.02,1.78.03,2.27.03.56,0,1.31-.01,2.23-.03l-.08,2.33c.42-.6.78-1.04,1.08-1.33.3-.29.63-.54,1-.75.37-.21.78-.37,1.23-.48.45-.11.92-.17,1.39-.17.44,0,.89.06,1.36.17,0,1.03.05,2.33.15,3.91-.65-.18-1.24-.26-1.77-.26-.64,0-1.21.1-1.7.29-.49.19-.93.49-1.32.88-.39.39-.71.87-.97,1.45-.21.46-.36,1.06-.46,1.8-.09.57-.16,1.56-.22,2.95-.06,1.39-.09,2.76-.09,4.1,0,.52.02,1.17.05,1.95-.84-.02-1.61-.03-2.3-.03s-1.5.01-2.45.03Z"/>
    <path class="cls-1" d="M158.1,146.28c-.13.61-.34,1.73-.63,3.38-.93.21-1.65.34-2.18.4-.53.05-1.03.08-1.49.08-.82,0-1.55-.08-2.19-.23-.65-.15-1.18-.43-1.6-.82-.42-.39-.7-.85-.85-1.37-.15-.52-.22-1.07-.22-1.63,0-.14,0-.34.02-.58.01-.24.06-1.03.13-2.35l.38-6.88h-2.38c.05-.66.1-1.73.15-3.19h2.49c.07-.64.13-1.73.2-3.26l1.96-.38c.41-.08,1.2-.26,2.37-.55-.08,1.49-.12,2.89-.14,4.19h4.21c-.08,1.49-.12,2.55-.12,3.19h-4.22c-.23,4.49-.35,7.09-.35,7.79s.07,1.21.22,1.59.39.65.72.81c.33.17.68.25,1.06.25.28,0,.57-.02.87-.07.3-.04.84-.17,1.6-.36Z"/>
    <path class="cls-1" d="M160.37,149.73c.17-1.66.29-3.04.35-4.15.11-1.76.21-3.8.29-6.11s.14-4.5.18-6.57c1.07.02,1.88.03,2.42.03.49,0,1.29-.01,2.4-.03-.15,1.92-.27,3.75-.36,5.49-.09,1.74-.16,3.74-.2,5.99-.04,2.25-.06,4.03-.06,5.35-1.01-.02-1.81-.03-2.42-.03-.57,0-1.44.01-2.6.03ZM161.28,130.02c.04-1.14.07-2.01.07-2.61v-.53c1,.02,1.82.03,2.45.03.86,0,1.66-.01,2.4-.03-.03.28-.06.59-.07.94l-.08,2.2c-.84-.02-1.61-.03-2.32-.03s-1.52.01-2.45.03Z"/>
    <path class="cls-1" d="M182.6,145.91c-.06.45-.14.97-.25,1.54-.11.57-.23,1.29-.35,2.13-1.58.36-3.13.55-4.67.55-.89,0-1.75-.08-2.58-.25-.83-.17-1.6-.46-2.31-.89-.71-.42-1.34-.98-1.88-1.68s-.95-1.54-1.22-2.52c-.27-.99-.41-2-.41-3.05,0-1.39.22-2.73.67-4,.45-1.28,1.1-2.33,1.96-3.14.86-.81,1.82-1.36,2.87-1.65,1.05-.29,2.23-.44,3.52-.44.72,0,1.46.04,2.22.12.76.08,1.66.25,2.7.5l.25,3.62c-1.64-.56-3.07-.84-4.3-.84-.75,0-1.46.13-2.12.38s-1.24.65-1.72,1.2c-.48.55-.82,1.18-1.02,1.89-.2.72-.31,1.45-.31,2.2,0,1.05.16,1.96.49,2.72s.88,1.36,1.68,1.78c.79.42,1.7.63,2.71.63.5,0,1.1-.06,1.81-.19.71-.13,1.46-.33,2.25-.62Z"/>
    <path class="cls-1" d="M185.97,149.73l.33-4.3.38-8.26.18-7.07c.02-1.28.03-2.27.03-2.96,1.16.02,1.98.03,2.46.03.57,0,1.33-.01,2.26-.03l-.35,5.38-.4,8.57-.17,6.4-.02,2.23c-.98-.02-1.75-.03-2.31-.03-.64,0-1.44.01-2.41.03ZM191.24,140.31l3.37-4.1c.29-.35.63-.79,1.03-1.31.4-.52.9-1.19,1.51-2,1.15.02,1.98.03,2.51.03.73,0,1.65-.01,2.76-.03l-5.45,6.25-.98,1.19c.81,1.28,3.04,4.41,6.71,9.39-.99-.02-1.84-.03-2.55-.03s-1.59.01-2.63.03c-.64-1.05-1.16-1.89-1.57-2.53-.4-.63-.78-1.19-1.12-1.66l-2.82-4.03c-.08-.11-.34-.51-.78-1.21Z"/>
    <path class="cls-1" d="M219.6,145.98c-.14.65-.35,1.82-.61,3.51-1.19.25-2.2.42-3.01.51s-1.64.13-2.47.13c-1.45,0-2.74-.14-3.88-.43-1.14-.29-2.14-.81-3-1.58-.86-.77-1.5-1.71-1.9-2.82s-.61-2.28-.61-3.51c0-1.36.24-2.67.71-3.94s1.14-2.31,1.99-3.12c.85-.81,1.83-1.38,2.92-1.72,1.09-.34,2.23-.5,3.43-.5,1.12,0,2.2.14,3.21.42,1.01.28,1.87.74,2.56,1.38s1.22,1.41,1.59,2.3c.37.9.55,1.9.55,3,0,.52-.06,1.05-.17,1.6l-12.13.02c-.02.41-.03.73-.03.98,0,.74.13,1.42.38,2.04s.62,1.14,1.11,1.57c.49.43,1.07.75,1.74.95s1.33.31,1.99.31c.76,0,1.59-.08,2.47-.25.89-.17,1.94-.45,3.17-.84ZM208.91,139.29l7.75.02c0-.53-.02-.92-.05-1.17s-.11-.54-.22-.87c-.12-.32-.27-.61-.47-.86-.2-.25-.43-.45-.7-.62-.26-.17-.57-.29-.92-.38-.35-.09-.72-.13-1.12-.13-.46,0-.91.07-1.35.21-.44.14-.84.35-1.2.63-.36.28-.66.58-.88.92-.23.34-.4.67-.5.98-.11.31-.22.73-.33,1.26Z"/>
    <path class="cls-1" d="M233.9,146.28c-.13.61-.34,1.73-.63,3.38-.93.21-1.65.34-2.18.4-.53.05-1.03.08-1.49.08-.82,0-1.55-.08-2.19-.23-.65-.15-1.18-.43-1.6-.82-.42-.39-.7-.85-.85-1.37-.15-.52-.22-1.07-.22-1.63,0-.14,0-.34.02-.58.01-.24.05-1.03.13-2.35l.38-6.88h-2.38c.05-.66.1-1.73.15-3.19h2.49c.07-.64.13-1.73.2-3.26l1.96-.38c.41-.08,1.2-.26,2.37-.55-.08,1.49-.12,2.89-.14,4.19h4.21c-.08,1.49-.12,2.55-.12,3.19h-4.22c-.23,4.49-.35,7.09-.35,7.79s.07,1.21.22,1.59c.15.38.39.65.72.81.33.17.68.25,1.06.25.28,0,.57-.02.87-.07.3-.04.84-.17,1.6-.36Z"/>
    <path class="cls-1" d="M235.72,149.42l-.36-3.64c1.08.44,2,.75,2.75.92.75.17,1.44.26,2.07.26s1.16-.07,1.59-.22c.43-.15.75-.37.96-.66.21-.29.31-.6.31-.92,0-.14-.01-.28-.04-.4s-.08-.25-.15-.38c-.07-.13-.16-.26-.25-.37s-.22-.25-.39-.4c-.17-.15-.4-.34-.71-.57l-.89-.71c-.86-.67-1.52-1.2-1.97-1.59-.45-.39-.83-.78-1.14-1.18-.31-.4-.54-.83-.7-1.27-.16-.45-.24-.9-.24-1.37,0-.8.25-1.57.74-2.3.49-.73,1.21-1.26,2.14-1.6.94-.34,2.04-.5,3.31-.5,1.44,0,3.11.17,5,.51l.22,3.46c-1.28-.52-2.51-.78-3.69-.78-.64,0-1.2.06-1.68.19-.48.13-.83.32-1.04.58-.21.26-.31.55-.31.87,0,.19.03.37.1.55.07.18.18.37.35.57.17.2.36.39.57.56.21.18.66.52,1.35,1.04.68.52,1.28.99,1.8,1.41.51.42.93.84,1.27,1.27s.58.88.76,1.37c.18.49.27.98.27,1.47,0,.83-.25,1.59-.76,2.3s-1.27,1.26-2.3,1.66c-1.03.4-2.17.6-3.44.6-.66,0-1.47-.05-2.42-.16-.95-.11-1.96-.29-3.04-.55Z"/>
  </g>
  <g>
    <g>
      <path class="cls-1" d="M79.42,121c-2.86-1.66-5.15-3.94-6.48-6.83-.84-2.16-1.62-4.25-2.82-6.22-.71-1.23-1.62-2.23-3.06-2.87.25-4.47-.91-8.53-2.84-12.68,6.93.99,12.48,4.67,14.14,10.84,1.02,3.36,1.81,6.66,2.06,10.16.1,2.52-.01,4.88-1.01,7.6Z"/>
      <path class="cls-1" d="M65.45,77.03c-1.6,5.6-5.97,7.56-11.69,7.47-4.06-3.06-5.85-7.59-3.89-12.25,1.11-2.62,2.85-4.84,4.91-6.82,2.56-1.68,5.27-2.58,8.44-2.65,3.63,5.12,3.75,8.36,2.23,14.25Z"/>
    </g>
    <g>
      <path class="cls-1" d="M44.64,122.43c-1.99,2.53-4.65,4.28-7.61,5.36-2.69-.95-5.08-1.91-7.47-3.48-.98-2.82-1.43-5.79-1.05-8.8,2.19-2.37,4.68-4.19,7.68-5.41,2.61.87,5.01,2,7.33,3.53.96,2.85,1.34,5.61,1.12,8.8Z"/>
      <path class="cls-1" d="M51.92,105.79c-1.87,2.87-4.75,4.69-7.94,5.43-2.57-1.07-4.85-2.01-7.38-3.3-.83-2.82-1.21-5.78-.94-8.89,2.03-2.36,4.62-4.06,7.59-5.31l7.38,3.42c.82,2.83,1.4,5.54,1.3,8.64Z"/>
      <path class="cls-1" d="M26.09,112.05c-4.07-1.2-9.29-2.7-8.38-6.32.99-3.96,3.97-11.51,7.36-10.82,2.76.57,4.92,1.98,7.5,3.36.73,2.84,1.73,6.4.39,9.16-1.21,2.48-4.55,3.26-6.87,4.61Z"/>
      <path class="cls-1" d="M62.37,118.33c-1.72,3.49-4.12,9.25-7.49,8.29-2.13-.61-4.36-1.46-6.11-2.84-1.13-.89-2.41-7.59-1.17-9.32,1.79-2.5,4.83-3.81,7.67-4.9,2.37,1.17,4.74,2.01,6.8,3.63,1.51,1.19,1.02,3.68.3,5.15Z"/>
      <path class="cls-1" d="M36.06,130.12c1.55.73,1.28,6.12,1.27,9.24-3.47,1.39-7.03,2.33-10.9,2.18-2.28-2.84-3.71-6.11-5.06-9.6,2.26-2.27,4.66-4.06,7.76-5.1l6.92,3.28Z"/>
      <path class="cls-1" d="M44.61,152.86c-3.62,1.13-7.68-.47-9.4-3.65-.92-1.71-.98-3.58-1.21-5.59,4.44-1.2,8.55-2.75,12.73-5.08,1.58,5.69,3.76,12.48-2.13,14.32Z"/>
      <path class="cls-1" d="M41.55,90.48c-1.93,2.49-4.43,4.14-7.38,5.48-3.11-.66-6.17-1.89-8.62-4.17,1.88-5.13,9.72-7.2,15.4-8.37.43,2.38.57,4.48.6,7.06Z"/>
      <path class="cls-1" d="M63.82,110.39l-5.59-1.85c-1.12-.37-1.93-.9-2.87-1.8-.63-2.89-1.59-6.25-.58-9.17,1.33-1.99,4-2.95,5.86-4.46,1.78,2.78,2.85,5.44,3.54,8.47.55,2.9.65,5.73-.36,8.81Z"/>
      <path class="cls-1" d="M54.68,129.3c-3.43,4.43-9.27,7.65-14.6,9.54l-.83-5.63c-.25-1.67.59-2.99,1.84-3.99,1.92-1.54,3.84-3.04,6.25-3.64,2.58,1.11,4.89,2.32,7.35,3.71Z"/>
      <path class="cls-1" d="M26.14,124.72c-1.75,1.96-3.93,3.47-6.39,4.63-1.5-2.57-1.69-5.31-2.05-8.13s-.9-5.81.11-8.91l7.73,3.49c.56,2.97.84,5.72.6,8.93Z"/>
      <path class="cls-1" d="M59.35,90.79c-1.93,1.88-4.03,3.47-6.58,4.41-2.69-1.1-5.21-2.25-7.77-3.74-.74-2.61-1.11-5.15-1.28-7.97l4.12-.19c1.68,3.37,5.26,4.75,8.97,4.36l2.54,3.13Z"/>
    </g>
  </g>
</svg>