<?xml version="1.0" encoding="UTF-8" standalone="no"?><!DOCTYPE svg PUBLIC "-//W3C//DTD SVG 1.1//EN" "http://www.w3.org/Graphics/SVG/1.1/DTD/svg11.dtd"><svg width="100%" height="100%" viewBox="0 0 1395 360" version="1.1" xmlns="http://www.w3.org/2000/svg" xmlns:xlink="http://www.w3.org/1999/xlink" xml:space="preserve" xmlns:serif="http://www.serif.com/" style="fill-rule:evenodd;clip-rule:evenodd;stroke-linejoin:round;stroke-miterlimit:2;"><rect id="logo" x="0" y="0" width="1394.742" height="359.341" style="fill:none;"/><g><g transform="matrix(227.038569,0,0,227.038569,1381.123626,205.847808)"></g><text x="349.584px" y="205.848px" style="font-family:'BaskOldFace', 'Baskerville Old Face', serif;font-size:227.039px;">Guanacaste</text><g transform="matrix(79.166667,0,0,79.166667,702.475679,310.816103)"></g><text x="368.182px" y="310.816px" style="font-family:'MicrosoftSansSerif', 'Microsoft Sans Serif', sans-serif;font-size:79.167px;">TICKETS</text><g><path d="M129.35,296.87l-38.482,-49.198l-28.266,27.418l-22.613,-33.637l58.228,-55.402l54.592,55.967l54.592,-55.967l58.228,55.402l-22.613,33.637l-28.266,-27.418l-39.979,50.451l-21.962,28.049l-23.459,-29.302Z" style="fill:#054f6f;"/><path d="M152.809,128.943l55.095,-53.186c0,0 78.874,34.349 75.332,118.129l-60.728,-64.178l-69.699,69.699l-69.699,-69.699l-60.728,64.178c-3.542,-83.779 75.332,-118.129 75.332,-118.129l55.095,53.186Z" style="fill:#054f6f;"/><path d="M152.809,19.983l35.885,36.23l-35.885,36.23l-35.885,-36.23l35.885,-36.23Z" style="fill:#054f6f;"/></g></g></svg>