<?xml version="1.0" encoding="UTF-8"?>
<svg id="Capa_2" data-name="Capa 2" xmlns="http://www.w3.org/2000/svg" viewBox="0 0 500 500">
  <defs>
    <style>
      .cls-1 {
        fill: #fff;
      }
    </style>
  </defs>
  <g>
    <path class="cls-1" d="M217.54,160.55c4.45.06,8.7.1,12.76.1,5.32,0,9.74-.03,13.29-.1-.85,10.79-1.45,22.78-1.81,35.95-5.35,1.06-10.18,1.81-14.49,2.25-4.32.43-7.99.65-11.01.65-5.67,0-10.93-.6-15.77-1.79-4.85-1.19-8.94-3.12-12.29-5.8s-5.9-6.19-7.66-10.56-2.63-8.98-2.63-13.84c0-4.16.65-8.17,1.96-12.03s3.24-7.41,5.8-10.63c2.56-3.22,5.65-5.9,9.28-8.05,3.62-2.14,7.47-3.61,11.55-4.4,4.07-.79,8.38-1.18,12.93-1.18,6.25,0,13.43.84,21.55,2.51.03,3.66.21,7.49.53,11.5-7.6-2.54-14.48-3.82-20.63-3.82-3.96,0-7.71.56-11.23,1.69s-6.57,2.87-9.13,5.24c-2.56,2.37-4.51,5.3-5.85,8.8-1.34,3.5-2,7.11-2,10.85,0,4.16.77,7.87,2.3,11.14,1.53,3.27,4.1,5.81,7.71,7.61,3.61,1.8,7.75,2.71,12.42,2.71,1.71,0,3.72-.15,6.04-.46,2.32-.31,4.74-.83,7.25-1.57l.79-16.96-3.82-.05c-2.16,0-4.9.05-8.23.15.29-4.32.43-7.62.43-9.91Z"/>
    <path class="cls-1" d="M303.95,198.25c-2.84-.06-5.01-.1-6.53-.1-1.9,0-4.06.03-6.48.1l.09-8.02c-.9,1.35-1.69,2.44-2.37,3.26-.68.82-1.56,1.63-2.66,2.42-1.1.79-2.29,1.42-3.58,1.88-1.29.47-2.76.85-4.42,1.16-1.66.31-3.42.46-5.29.46-3.61,0-6.75-.52-9.42-1.57-2.67-1.05-4.79-2.63-6.35-4.76-1.56-2.13-2.34-5.17-2.34-9.13v-1.01l.78-12.47.73-16.43c.03-1.32.05-2.96.05-4.93,3.06.06,5.45.1,7.19.1,1.83,0,4.05-.03,6.66-.1l-1.61,22.04c-.1,1.71-.17,3.15-.22,4.32s-.07,2.02-.07,2.54c0,2.32.35,4.25,1.04,5.77.69,1.53,1.9,2.7,3.62,3.5,1.72.81,3.56,1.21,5.53,1.21s3.64-.35,5.31-1.06c1.51-.64,2.81-1.55,3.89-2.71,1.08-1.16,1.99-2.72,2.73-4.69.55-1.42.96-3.38,1.26-5.9.22-1.77.43-4.82.63-9.13.27-5.22.45-10.52.55-15.9,3.19.06,5.63.1,7.31.1,1.9,0,4.05-.03,6.43-.1-.39,4.61-.79,10.37-1.21,17.28-.42,6.91-.7,12.61-.87,17.11-.16,4.49-.29,9.42-.39,14.76Z"/>
    <path class="cls-1" d="M319.65,159.88c.45-2.32.73-3.95.85-4.88.11-.93.31-2.35.6-4.25,4.38-1.03,8.25-1.76,11.6-2.17,3.35-.42,6.59-.63,9.71-.63,3.54,0,6.8.41,9.76,1.23s5.28,2.13,6.96,3.94c1.67,1.8,2.51,4.4,2.51,7.78,0,1.84-.25,6.52-.77,14.04-.51,7.52-.82,15.29-.91,23.32-2.45-.06-4.71-.1-6.77-.1s-4.27.03-6.92.1c.42-3.9.77-8.41,1.03-13.53l.64-12.03c-1.22.81-2.16,1.37-2.8,1.69-.65.32-1.37.62-2.18.89-.8.27-2.22.69-4.26,1.26-2.03.56-3.66,1.06-4.88,1.47-1.22.42-2.33.89-3.31,1.43-.99.53-1.81,1.13-2.49,1.79-.68.66-1.17,1.35-1.47,2.08-.31.72-.46,1.51-.46,2.34,0,1.35.39,2.52,1.18,3.5.79.98,1.78,1.67,2.97,2.05s2.59.58,4.2.58c1.03,0,2.12-.08,3.26-.24,1.14-.16,2.68-.56,4.61-1.21-.68,1.84-1.47,4.57-2.37,8.21-2.29.39-4.11.63-5.46.72-1.35.1-2.61.14-3.77.14-4.06,0-7.39-.55-10-1.64s-4.53-2.83-5.78-5.22c-1.24-2.38-1.86-4.78-1.86-7.2,0-1.38.24-2.75.72-4.11.49-1.35,1.2-2.59,2.13-3.72.94-1.13,2.14-2.21,3.63-3.26,1.48-1.05,3.63-2.06,6.43-3.04,2.8-.98,6.51-1.97,11.12-2.97,1.22-.26,2.5-.57,3.82-.94,1.32-.37,2.38-.73,3.17-1.09.79-.35,1.47-.81,2.06-1.38.58-.56,1.01-1.15,1.28-1.76.27-.61.41-1.24.41-1.88,0-1.26-.41-2.32-1.23-3.19s-1.89-1.47-3.19-1.81-2.75-.51-4.33-.51c-5.87,0-12.35,1.4-19.44,4.2Z"/>
    <path class="cls-1" d="M371.69,198.25c.73-7.31,1.35-15.53,1.85-24.64.5-9.12.77-17.28.84-24.5,2.97.06,5.34.1,7.11.1,2.1,0,4.32-.03,6.68-.1l-.54,8.21c1-1.42,1.88-2.54,2.63-3.38.76-.84,1.72-1.66,2.9-2.46,1.18-.8,2.43-1.45,3.77-1.93,1.34-.48,2.84-.87,4.49-1.16,1.66-.29,3.39-.43,5.2-.43,2.87,0,5.61.36,8.24,1.09s4.74,1.88,6.35,3.46c1.61,1.58,2.67,3.3,3.19,5.17.52,1.87.77,3.85.77,5.94,0,.87-.05,2.26-.14,4.16l-1,21.12c-.13,2.93-.21,6.06-.24,9.37-2.55-.06-4.73-.1-6.53-.1-2.45,0-4.92.03-7.4.1.26-2.8.58-7.69.97-14.67.39-6.97.58-11.59.58-13.84,0-2.54-.4-4.59-1.21-6.14-.81-1.55-2.05-2.72-3.74-3.53-1.69-.8-3.52-1.21-5.48-1.21s-3.74.37-5.41,1.11c-1.68.74-3.12,1.82-4.34,3.24-1.29,1.45-2.29,3.24-2.99,5.36-.74,2.26-1.29,5.98-1.64,11.16-.32,4.61-.58,10.78-.78,18.51-2.48-.06-4.73-.1-6.73-.1s-4.5.03-7.4.1Z"/>
    <path class="cls-1" d="M439.1,159.88c.45-2.32.73-3.95.84-4.88.11-.93.31-2.35.61-4.25,4.38-1.03,8.25-1.76,11.6-2.17s6.59-.63,9.71-.63c3.54,0,6.8.41,9.76,1.23,2.96.82,5.28,2.13,6.96,3.94,1.68,1.8,2.51,4.4,2.51,7.78,0,1.84-.26,6.52-.77,14.04-.51,7.52-.81,15.29-.91,23.32-2.45-.06-4.71-.1-6.77-.1s-4.27.03-6.91.1c.42-3.9.76-8.41,1.03-13.53l.64-12.03c-1.22.81-2.16,1.37-2.81,1.69-.64.32-1.37.62-2.18.89-.81.27-2.22.69-4.26,1.26-2.03.56-3.66,1.06-4.89,1.47-1.22.42-2.33.89-3.31,1.43-.98.53-1.81,1.13-2.49,1.79-.68.66-1.17,1.35-1.48,2.08-.31.72-.46,1.51-.46,2.34,0,1.35.39,2.52,1.18,3.5.79.98,1.78,1.67,2.97,2.05,1.19.39,2.59.58,4.2.58,1.03,0,2.12-.08,3.26-.24,1.14-.16,2.68-.56,4.61-1.21-.68,1.84-1.47,4.57-2.37,8.21-2.29.39-4.11.63-5.46.72-1.35.1-2.61.14-3.77.14-4.06,0-7.39-.55-10-1.64-2.61-1.09-4.53-2.83-5.77-5.22-1.24-2.38-1.86-4.78-1.86-7.2,0-1.38.24-2.75.72-4.11.48-1.35,1.19-2.59,2.13-3.72.94-1.13,2.14-2.21,3.63-3.26,1.48-1.05,3.63-2.06,6.43-3.04,2.8-.98,6.51-1.97,11.12-2.97,1.22-.26,2.5-.57,3.82-.94,1.32-.37,2.38-.73,3.17-1.09.79-.35,1.48-.81,2.06-1.38.58-.56,1.01-1.15,1.28-1.76.27-.61.41-1.24.41-1.88,0-1.26-.41-2.32-1.23-3.19-.82-.87-1.89-1.47-3.19-1.81-1.31-.34-2.75-.51-4.33-.51-5.87,0-12.35,1.4-19.44,4.2Z"/>
    <path class="cls-1" d="M243.05,281.04l1.06-14.11,1.06-21.02.67-20.68h-3.38l-3.14.05-2.99.05-11.15.34c.26-4.64.4-8.17.44-10.58,9.27.06,18.98.1,29.13.1l17.34-.05,9.28-.05c-.32,4.58-.48,8.11-.48,10.58-5.83-.29-11.42-.43-16.77-.43h-3.72l-.58,8.83-1.39,33.96-.1,5.69c-.03,2.35-.05,4.79-.05,7.33l-7.35-.1c-.81,0-3.44.03-7.89.1Z"/>
    <path class="cls-1" d="M311.58,230.74c3.7,0,7.26.55,10.66,1.67,3.4,1.11,6.28,2.75,8.65,4.93,2.37,2.17,4.15,4.83,5.34,7.97s1.79,6.45,1.79,9.93c0,3.67-.63,7.22-1.88,10.63s-3.08,6.37-5.46,8.87c-2.38,2.5-5.35,4.37-8.91,5.61-3.56,1.24-7.35,1.86-11.38,1.86-3.74,0-7.29-.55-10.65-1.67-3.37-1.11-6.24-2.78-8.63-5s-4.2-4.93-5.44-8.12c-1.24-3.19-1.86-6.52-1.86-10s.57-6.93,1.69-10.15c1.13-3.22,2.89-6.09,5.29-8.6,2.4-2.51,5.47-4.46,9.21-5.85,3.74-1.38,7.6-2.08,11.6-2.08ZM311.57,240.69c-2.79,0-5.29.68-7.49,2.05-2.2,1.37-3.84,3.41-4.91,6.11-1.07,2.71-1.61,5.65-1.61,8.84,0,2.8.44,5.3,1.32,7.49.88,2.19,2.33,3.96,4.33,5.32,2.01,1.35,4.39,2.03,7.15,2.03s5.3-.7,7.44-2.1c2.13-1.4,3.74-3.46,4.81-6.19,1.07-2.72,1.61-5.73,1.61-9.01,0-2.67-.42-5.11-1.25-7.3-.83-2.19-2.24-3.95-4.21-5.27s-4.37-1.98-7.2-1.98Z"/>
    <path class="cls-1" d="M396.15,281.04c-2.84-.06-5.01-.1-6.53-.1-1.9,0-4.06.03-6.48.1l.09-8.02c-.9,1.35-1.69,2.44-2.37,3.26-.68.82-1.56,1.63-2.66,2.42-1.1.79-2.29,1.42-3.58,1.88-1.29.47-2.76.85-4.42,1.16-1.66.31-3.42.46-5.29.46-3.61,0-6.75-.52-9.42-1.57-2.67-1.05-4.79-2.63-6.35-4.76-1.56-2.13-2.34-5.17-2.34-9.13v-1.02l.78-12.47.73-16.43c.03-1.32.05-2.96.05-4.93,3.06.07,5.45.1,7.19.1,1.83,0,4.05-.03,6.66-.1l-1.61,22.04c-.1,1.71-.17,3.15-.22,4.33-.05,1.18-.07,2.02-.07,2.54,0,2.32.35,4.25,1.04,5.77.69,1.53,1.9,2.7,3.62,3.5,1.72.81,3.56,1.21,5.53,1.21s3.64-.36,5.31-1.06c1.51-.64,2.81-1.55,3.89-2.71,1.08-1.16,1.99-2.72,2.73-4.69.55-1.42.96-3.38,1.26-5.9.22-1.77.43-4.82.63-9.13.27-5.22.45-10.52.55-15.9,3.19.07,5.63.1,7.31.1,1.9,0,4.05-.03,6.43-.1-.39,4.61-.79,10.36-1.21,17.28-.42,6.91-.7,12.61-.87,17.11s-.29,9.42-.39,14.76Z"/>
    <path class="cls-1" d="M408.08,281.04l1.4-22.95.39-13.34c.06-2.74.1-5.49.1-8.26,0-.48-.03-2.01-.1-4.59,3,.07,5.2.1,6.62.1,1.64,0,3.82-.03,6.53-.1l-.24,6.81c1.22-1.74,2.27-3.04,3.14-3.89.87-.85,1.84-1.59,2.92-2.2,1.08-.61,2.28-1.08,3.6-1.4,1.32-.32,2.67-.48,4.06-.48,1.29,0,2.61.16,3.96.48,0,3,.14,6.8.43,11.4-1.9-.51-3.62-.77-5.17-.77-1.87,0-3.52.28-4.96.85-1.43.56-2.72,1.42-3.86,2.56-1.14,1.14-2.09,2.55-2.83,4.23-.61,1.35-1.06,3.11-1.35,5.27-.25,1.68-.46,4.54-.64,8.6-.17,4.06-.26,8.05-.26,11.99,0,1.51.05,3.41.14,5.7-2.45-.06-4.7-.1-6.73-.1s-4.39.03-7.16.1Z"/>
    <path class="cls-1" d="M168.83,363.83l1.06-14.11,1.06-21.02.68-20.68h-3.38l-3.14.05-2.99.05-11.15.34c.26-4.64.4-8.17.43-10.58,9.27.06,18.98.1,29.13.1l17.34-.05,9.27-.05c-.32,4.58-.48,8.11-.48,10.58-5.83-.29-11.42-.43-16.77-.43h-3.72l-.57,8.83-1.39,33.96-.1,5.69c-.03,2.35-.05,4.79-.05,7.33l-7.36-.1c-.81,0-3.43.03-7.89.1Z"/>
    <path class="cls-1" d="M210.92,363.83c.49-4.83.83-8.87,1.03-12.13.33-5.15.61-11.1.86-17.83s.42-13.13.52-19.18c3.14.07,5.49.1,7.06.1,1.44,0,3.78-.03,7.01-.1-.44,5.61-.79,10.95-1.05,16.04s-.46,10.92-.58,17.49c-.12,6.57-.19,11.77-.19,15.61-2.94-.06-5.29-.1-7.06-.1-1.68,0-4.21.03-7.6.1ZM213.57,306.28c.13-3.32.19-5.86.19-7.63v-1.55c2.93.06,5.31.1,7.15.1,2.51,0,4.85-.03,7.01-.1-.1.81-.16,1.72-.19,2.75l-.24,6.43c-2.45-.06-4.7-.1-6.77-.1s-4.45.03-7.15.1Z"/>
    <path class="cls-1" d="M275.82,352.67c-.16,1.32-.4,2.82-.73,4.49-.32,1.68-.66,3.75-1.02,6.23-4.61,1.06-9.15,1.59-13.63,1.59-2.61,0-5.12-.24-7.54-.72-2.42-.48-4.66-1.35-6.74-2.59-2.08-1.24-3.91-2.87-5.48-4.9s-2.76-4.49-3.55-7.37c-.79-2.88-1.18-5.86-1.18-8.92,0-4.06.65-7.96,1.96-11.69,1.31-3.74,3.21-6.79,5.73-9.16,2.51-2.37,5.31-3.98,8.38-4.83,3.08-.85,6.5-1.28,10.27-1.28,2.09,0,4.25.12,6.47.36s4.85.73,7.88,1.47l.72,10.58c-4.79-1.64-8.97-2.46-12.54-2.46-2.19,0-4.25.37-6.2,1.11s-3.62,1.91-5.02,3.5-2.4,3.44-2.99,5.53c-.59,2.09-.89,4.24-.89,6.43,0,3.06.47,5.71,1.42,7.95.95,2.24,2.58,3.97,4.89,5.19,2.32,1.22,4.95,1.84,7.91,1.84,1.45,0,3.21-.18,5.28-.56,2.07-.37,4.27-.97,6.58-1.81Z"/>
    <path class="cls-1" d="M285.68,363.83l.96-12.56,1.11-24.11.53-20.63c.06-3.74.1-6.62.1-8.65,3.37.06,5.77.1,7.18.1,1.67,0,3.87-.03,6.6-.1l-1.01,15.7-1.15,25.03-.48,18.7-.05,6.52c-2.86-.06-5.11-.1-6.75-.1-1.86,0-4.21.03-7.04.1ZM301.04,336.31l9.85-11.97c.84-1.03,1.84-2.3,3.01-3.81s2.64-3.46,4.42-5.84c3.34.07,5.79.1,7.34.1,2.12,0,4.81-.03,8.06-.1l-15.92,18.25-2.86,3.48c2.36,3.74,8.89,12.88,19.6,27.42-2.9-.06-5.39-.1-7.45-.1s-4.63.03-7.69.1c-1.87-3.06-3.4-5.52-4.57-7.38-1.18-1.85-2.26-3.47-3.26-4.86l-8.23-11.75c-.23-.32-.99-1.5-2.28-3.53Z"/>
    <path class="cls-1" d="M383.87,352.86c-.42,1.9-1.01,5.32-1.79,10.24-3.48.74-6.41,1.24-8.79,1.5-2.39.26-4.78.39-7.2.39-4.22,0-8-.42-11.33-1.25s-6.26-2.37-8.77-4.61c-2.51-2.24-4.37-4.98-5.56-8.23-1.19-3.25-1.79-6.66-1.79-10.24,0-3.96.69-7.8,2.08-11.51s3.33-6.76,5.82-9.13c2.5-2.37,5.34-4.04,8.53-5.02,3.19-.98,6.52-1.47,10-1.47,3.29,0,6.41.41,9.37,1.23,2.96.82,5.45,2.16,7.47,4.03s3.56,4.11,4.64,6.73c1.08,2.62,1.62,5.54,1.62,8.75,0,1.51-.16,3.07-.48,4.68l-35.42.05c-.06,1.19-.1,2.14-.1,2.85,0,2.16.37,4.14,1.11,5.94.74,1.8,1.82,3.34,3.24,4.59,1.42,1.26,3.11,2.18,5.07,2.78s3.9.89,5.8.89c2.22,0,4.63-.24,7.23-.72,2.59-.48,5.68-1.31,9.25-2.46ZM352.65,333.34l22.62.05c0-1.54-.05-2.68-.14-3.42s-.31-1.58-.65-2.53c-.34-.95-.8-1.78-1.37-2.5-.58-.72-1.26-1.32-2.03-1.8-.77-.48-1.67-.85-2.68-1.11-1.02-.26-2.1-.38-3.26-.38-1.35,0-2.66.21-3.94.63s-2.44,1.03-3.5,1.83c-1.06.8-1.93,1.7-2.59,2.69-.66.99-1.15,1.95-1.47,2.86s-.65,2.14-.97,3.68Z"/>
    <path class="cls-1" d="M425.62,353.73c-.39,1.77-1,5.06-1.84,9.86-2.71.61-4.83,1-6.38,1.16s-3,.24-4.35.24c-2.39,0-4.52-.23-6.4-.68-1.88-.45-3.44-1.25-4.66-2.39-1.22-1.14-2.05-2.48-2.49-4.01-.43-1.53-.65-3.12-.65-4.76,0-.42.02-.98.05-1.69.03-.71.16-3,.39-6.86l1.11-20.1h-6.95c.16-1.93.3-5.04.43-9.33h7.28c.19-1.87.39-5.04.58-9.52l5.71-1.11c1.19-.23,3.5-.76,6.92-1.59-.23,4.35-.36,8.42-.4,12.23h12.29c-.23,4.35-.34,7.46-.34,9.33h-12.32c-.68,13.11-1.02,20.7-1.02,22.76s.22,3.54.65,4.64c.44,1.09,1.14,1.88,2.1,2.37s2,.72,3.09.72c.81,0,1.65-.06,2.54-.19.88-.13,2.44-.48,4.66-1.06Z"/>
    <path class="cls-1" d="M430.94,362.91l-1.06-10.63c3.16,1.29,5.83,2.18,8.02,2.68,2.19.5,4.2.75,6.04.75s3.38-.22,4.64-.65c1.26-.44,2.19-1.08,2.8-1.93.61-.85.92-1.75.92-2.68,0-.42-.04-.81-.12-1.16-.08-.35-.23-.72-.43-1.11-.21-.39-.45-.75-.73-1.09-.27-.34-.65-.72-1.13-1.16-.49-.43-1.18-.99-2.08-1.67l-2.61-2.08c-2.51-1.96-4.43-3.51-5.75-4.64-1.32-1.13-2.43-2.28-3.33-3.45-.9-1.18-1.59-2.42-2.05-3.72-.47-1.31-.7-2.63-.7-3.99,0-2.35.72-4.59,2.15-6.72,1.43-2.13,3.52-3.68,6.26-4.66,2.74-.98,5.96-1.47,9.67-1.47,4.22,0,9.08.5,14.59,1.5l.63,10.1c-3.74-1.51-7.33-2.27-10.78-2.27-1.87,0-3.5.18-4.9.55-1.4.37-2.41.94-3.02,1.69-.61.76-.92,1.6-.92,2.54,0,.55.1,1.09.29,1.62.19.53.53,1.09,1.02,1.67.48.58,1.04,1.13,1.67,1.64.63.52,1.94,1.53,3.94,3.04s3.75,2.88,5.24,4.11c1.5,1.22,2.73,2.46,3.7,3.7.97,1.24,1.71,2.57,2.22,3.99.52,1.42.77,2.85.77,4.3,0,2.42-.74,4.66-2.22,6.72-1.48,2.06-3.72,3.67-6.72,4.83-3,1.16-6.35,1.74-10.05,1.74-1.93,0-4.29-.15-7.06-.46-2.77-.31-5.74-.85-8.89-1.62Z"/>
  </g>
  <g>
    <g>
      <path class="cls-1" d="M180.2,278.17c-7.6-4.42-13.7-10.47-17.24-18.15-2.23-5.75-4.31-11.29-7.5-16.55-1.9-3.27-4.31-5.92-8.13-7.63.67-11.88-2.42-22.68-7.54-33.71,18.43,2.64,33.18,12.42,37.6,28.83,2.7,8.95,4.81,17.72,5.49,27.02.27,6.7-.03,12.97-2.67,20.2Z"/>
      <path class="cls-1" d="M143.07,161.26c-4.26,14.9-15.87,20.1-31.07,19.86-10.8-8.14-15.57-20.18-10.34-32.57,2.94-6.97,7.58-12.88,13.05-18.13,6.81-4.48,14.01-6.86,22.43-7.05,9.65,13.62,9.97,22.23,5.94,37.89Z"/>
    </g>
    <g>
      <path class="cls-1" d="M87.75,281.96c-5.29,6.73-12.37,11.37-20.23,14.25-7.16-2.54-13.51-5.08-19.87-9.24-2.6-7.5-3.8-15.4-2.8-23.41,5.82-6.31,12.43-11.15,20.43-14.38,6.94,2.32,13.33,5.31,19.5,9.39,2.56,7.57,3.55,14.92,2.98,23.39Z"/>
      <path class="cls-1" d="M107.09,237.73c-4.96,7.63-12.62,12.47-21.11,14.44-6.84-2.84-12.9-5.35-19.62-8.77-2.19-7.51-3.22-15.37-2.51-23.63,5.4-6.28,12.29-10.8,20.18-14.1l19.61,9.1c2.17,7.51,3.71,14.72,3.45,22.98Z"/>
      <path class="cls-1" d="M38.43,254.37c-10.81-3.19-24.69-7.17-22.27-16.8,2.64-10.52,10.57-30.61,19.57-28.76,7.34,1.51,13.09,5.26,19.94,8.94,1.95,7.56,4.61,17.01,1.03,24.36-3.21,6.59-12.1,8.67-18.26,12.27Z"/>
      <path class="cls-1" d="M134.87,271.06c-4.58,9.27-10.95,24.6-19.91,22.03-5.66-1.62-11.58-3.88-16.25-7.55-3.02-2.37-6.41-20.19-3.11-24.79,4.77-6.65,12.84-10.13,20.4-13.04,6.31,3.11,12.61,5.35,18.09,9.66,4.01,3.15,2.71,9.79.79,13.69Z"/>
      <path class="cls-1" d="M64.92,302.42c4.11,1.95,3.41,16.27,3.38,24.57-9.24,3.7-18.7,6.19-28.97,5.8-6.06-7.54-9.87-16.23-13.45-25.53,6.01-6.03,12.4-10.79,20.63-13.56l18.41,8.71Z"/>
      <path class="cls-1" d="M87.67,362.87c-9.63,3.01-20.42-1.25-24.98-9.71-2.45-4.55-2.6-9.51-3.22-14.85,11.81-3.18,22.73-7.32,33.85-13.51,4.2,15.13,9.99,33.17-5.65,38.07Z"/>
      <path class="cls-1" d="M79.51,197.03c-5.13,6.63-11.79,11.01-19.62,14.58-8.26-1.76-16.41-5.02-22.91-11.1,5-13.64,25.84-19.14,40.94-22.25,1.14,6.33,1.51,11.9,1.6,18.76Z"/>
      <path class="cls-1" d="M138.72,249.96l-14.87-4.93c-2.97-.98-5.14-2.39-7.63-4.79-1.66-7.7-4.22-16.61-1.54-24.38,3.54-5.29,10.63-7.85,15.58-11.86,4.72,7.38,7.57,14.47,9.41,22.53,1.46,7.72,1.73,15.24-.96,23.43Z"/>
      <path class="cls-1" d="M114.44,300.24c-9.11,11.79-24.65,20.34-38.82,25.37l-2.22-14.96c-.66-4.43,1.58-7.95,4.9-10.61,5.1-4.08,10.21-8.07,16.61-9.66,6.86,2.94,12.99,6.18,19.53,9.87Z"/>
      <path class="cls-1" d="M38.56,288.04c-4.65,5.21-10.46,9.24-16.98,12.3-3.99-6.82-4.5-14.11-5.46-21.62-1-7.84-2.4-15.44.29-23.7l20.54,9.27c1.48,7.9,2.23,15.19,1.61,23.75Z"/>
      <path class="cls-1" d="M126.85,197.85c-5.14,5.01-10.71,9.24-17.49,11.73-7.16-2.92-13.86-5.99-20.65-9.94-1.96-6.95-2.94-13.7-3.39-21.2l10.94-.49c4.47,8.96,13.98,12.62,23.84,11.59l6.76,8.32Z"/>
    </g>
  </g>
</svg>